<svg width="1440" height="720" viewBox="0 0 1440 720" fill="none" xmlns="http://www.w3.org/2000/svg">
<rect width="1440" height="720" fill="#3D2564"/>
<rect width="1440" height="720" fill="url(#paint0_linear)"/>
<path d="M738.77 384.605C829.122 568.974 644.57 684.355 541 719H1440V0H892.87C803.857 51.3811 648.418 200.235 738.77 384.605Z" fill="white"/>
<g clip-path="url(#clip0)">
<path d="M758.879 700.792C816.132 700.792 862.545 697.252 862.545 692.886C862.545 688.519 816.132 684.979 758.879 684.979C701.625 684.979 655.212 688.519 655.212 692.886C655.212 697.252 701.625 700.792 758.879 700.792Z" fill="#E6E6E6"/>
<path d="M799.048 466.521L789.022 494.486C788.263 496.605 788.259 498.922 789.012 501.044C789.764 503.166 791.227 504.962 793.152 506.129C794.554 506.978 796.147 507.461 797.784 507.533C799.421 507.605 801.05 507.264 802.52 506.54C803.991 505.817 805.256 504.735 806.198 503.395C807.141 502.054 807.731 500.498 807.914 498.87L811.095 470.537L835.191 390.889L814.442 380.849L799.048 466.521Z" fill="#A0616A"/>
<path d="M790.681 677.689H805.406V534.456L771.94 533.787L790.681 677.689Z" fill="#A0616A"/>
<path d="M725.088 677.689H739.813V534.456L706.348 533.787L725.088 677.689Z" fill="#A0616A"/>
<path d="M807.749 549.516L769.598 545.5L761.566 503.333L746.841 546.169L701.328 541.484L720.069 470.537C754.326 447.259 786.862 447.768 817.788 470.537L807.749 549.516Z" fill="#2F2E41"/>
<path d="M743.065 683.789C743.292 685.607 743.099 687.452 742.5 689.183C741.901 690.914 740.913 692.484 739.611 693.772C738.309 695.06 736.729 696.032 734.992 696.613C733.255 697.194 731.408 697.368 729.593 697.122L702.466 693.443C700.04 693.064 697.864 691.739 696.414 689.757C694.964 687.776 694.36 685.3 694.733 682.873C695.07 680.684 696.179 678.689 697.859 677.247C699.54 675.805 701.681 675.012 703.896 675.012H708.368L723.084 661.605C723.229 670.737 729.954 668.709 741.069 667.818L743.065 683.789Z" fill="#2F2E41"/>
<path d="M808.658 683.789C808.885 685.607 808.692 687.452 808.093 689.183C807.494 690.914 806.505 692.484 805.204 693.772C803.902 695.06 802.321 696.032 800.584 696.613C798.848 697.194 797 697.368 795.186 697.122L768.059 693.443C765.633 693.064 763.457 691.739 762.007 689.757C760.557 687.776 759.952 685.3 760.326 682.873C760.662 680.684 761.772 678.689 763.452 677.247C765.133 675.805 767.274 675.012 769.489 675.012H773.961L788.676 661.605C788.821 670.737 795.547 668.709 806.661 667.818L808.658 683.789Z" fill="#2F2E41"/>
<path d="M756.379 305.886C769.409 305.886 779.972 295.323 779.972 282.293C779.972 269.262 769.409 258.699 756.379 258.699C743.349 258.699 732.786 269.262 732.786 282.293C732.786 295.323 743.349 305.886 756.379 305.886Z" fill="#A0616A"/>
<path d="M786.331 321.949L756.881 324.627V298.523L772.275 289.153L786.331 321.949Z" fill="#A0616A"/>
<path d="M821.135 480.577C791.508 458.882 755.933 461.086 716.722 477.899C734.487 427.608 742.054 380.737 728.1 341.086C728.1 334.081 730.432 327.275 734.729 321.741C739.025 316.207 745.041 312.261 751.828 310.525L756.881 309.232L781.645 310.571L804.9 324.203C809.642 326.983 813.579 330.95 816.323 335.714C819.067 340.477 820.523 345.873 820.548 351.37L821.135 480.577Z" fill="#E6E6E6"/>
<path d="M706.682 461.167L696.657 489.131C695.897 491.25 695.894 493.567 696.646 495.689C697.399 497.811 698.862 499.608 700.787 500.774C702.189 501.624 703.781 502.107 705.419 502.179C707.056 502.251 708.685 501.909 710.155 501.186C711.626 500.463 712.891 499.381 713.833 498.04C714.776 496.7 715.365 495.144 715.548 493.515L718.73 465.182L742.825 385.534L722.077 375.494L706.682 461.167Z" fill="#A0616A"/>
<path d="M840.545 406.283H807.749V325.965C813.421 329.116 818.349 333.451 822.198 338.674C826.048 343.897 828.729 349.888 830.059 356.239L840.545 406.283Z" fill="#E6E6E6"/>
<path d="M738.391 269.518C736.949 270.199 735.361 270.51 733.769 270.424C732.177 270.338 730.632 269.857 729.272 269.025C727.942 268.146 726.937 266.854 726.413 265.348C725.889 263.843 725.875 262.206 726.372 260.692C727.367 258.134 729.884 256.532 732.327 255.281C737.715 252.522 743.489 250.593 749.453 249.56C752.297 249.068 755.308 248.797 757.996 249.848C759.326 250.368 760.518 251.192 761.838 251.737C764.265 252.738 766.973 252.742 769.542 253.286C772.172 253.86 774.648 254.992 776.802 256.606C778.956 258.221 780.739 260.278 782.029 262.641C782.874 264.249 783.523 265.952 783.962 267.715C785.199 272.537 785.183 277.595 783.915 282.409C781.894 290.035 776.753 297.042 777.215 304.917C773.414 302.704 771.633 298.196 768.458 295.151C766.098 292.901 763.045 291.518 759.797 291.228C758.91 291.263 758.031 291.039 757.268 290.584C756.714 290.043 756.332 289.351 756.168 288.595L752.592 277.393C751.864 275.113 750.985 272.637 748.928 271.414C747.659 270.771 746.259 270.431 744.837 270.42C741.435 270.172 738.018 270.204 734.622 270.516" fill="#2F2E41"/>
<path d="M746.172 391.558L708.021 376.833L725.347 330.15C727.364 324.714 730.907 319.975 735.551 316.502C740.194 313.029 745.741 310.97 751.526 310.571L746.172 391.558Z" fill="#E6E6E6"/>
<path d="M540.926 525.78H121.926C119.937 525.778 118.031 524.987 116.625 523.581C115.219 522.175 114.428 520.269 114.426 518.28V61.2803C114.428 59.2919 115.219 57.3855 116.625 55.9794C118.031 54.5734 119.937 53.7825 121.926 53.7803H540.926C542.914 53.7825 544.821 54.5734 546.227 55.9794C547.633 57.3855 548.424 59.2919 548.426 61.2803V518.28C548.424 520.269 547.633 522.175 546.227 523.581C544.821 524.987 542.914 525.778 540.926 525.78ZM121.926 56.7803C120.733 56.7816 119.589 57.2562 118.745 58.0998C117.902 58.9434 117.427 60.0873 117.426 61.2803V518.28C117.427 519.473 117.902 520.617 118.745 521.461C119.589 522.305 120.733 522.779 121.926 522.78H540.926C542.119 522.779 543.263 522.305 544.106 521.461C544.95 520.617 545.424 519.473 545.426 518.28V61.2803C545.424 60.0873 544.95 58.9434 544.106 58.0998C543.263 57.2562 542.119 56.7816 540.926 56.7803H121.926Z" fill="#E6E6E6"/>
<path d="M208.388 224.126C213.824 224.126 218.231 219.719 218.231 214.283C218.231 208.847 213.824 204.44 208.388 204.44C202.952 204.44 198.545 208.847 198.545 214.283C198.545 219.719 202.952 224.126 208.388 224.126Z" fill="#E6E6E6"/>
<path d="M249.401 224.126C254.837 224.126 259.244 219.719 259.244 214.283C259.244 208.847 254.837 204.44 249.401 204.44C243.964 204.44 239.558 208.847 239.558 214.283C239.558 219.719 243.964 224.126 249.401 224.126Z" fill="#E6E6E6"/>
<path d="M290.413 224.126C295.849 224.126 300.256 219.719 300.256 214.283C300.256 208.847 295.849 204.44 290.413 204.44C284.977 204.44 280.57 208.847 280.57 214.283C280.57 219.719 284.977 224.126 290.413 224.126Z" fill="#7B23C9"/>
<path d="M331.426 224.126C336.862 224.126 341.269 219.719 341.269 214.283C341.269 208.847 336.862 204.44 331.426 204.44C325.99 204.44 321.583 208.847 321.583 214.283C321.583 219.719 325.99 224.126 331.426 224.126Z" fill="#7B23C9"/>
<path d="M372.438 224.126C377.875 224.126 382.281 219.719 382.281 214.283C382.281 208.847 377.875 204.44 372.438 204.44C367.002 204.44 362.595 208.847 362.595 214.283C362.595 219.719 367.002 224.126 372.438 224.126Z" fill="#7B23C9"/>
<path d="M413.451 224.126C418.887 224.126 423.294 219.719 423.294 214.283C423.294 208.847 418.887 204.44 413.451 204.44C408.015 204.44 403.608 208.847 403.608 214.283C403.608 219.719 408.015 224.126 413.451 224.126Z" fill="#E6E6E6"/>
<path d="M454.464 224.126C459.9 224.126 464.307 219.719 464.307 214.283C464.307 208.847 459.9 204.44 454.464 204.44C449.027 204.44 444.621 208.847 444.621 214.283C444.621 219.719 449.027 224.126 454.464 224.126Z" fill="#E6E6E6"/>
<path d="M208.388 255.296C213.824 255.296 218.231 250.889 218.231 245.453C218.231 240.017 213.824 235.61 208.388 235.61C202.952 235.61 198.545 240.017 198.545 245.453C198.545 250.889 202.952 255.296 208.388 255.296Z" fill="#E6E6E6"/>
<path d="M249.401 255.296C254.837 255.296 259.244 250.889 259.244 245.453C259.244 240.017 254.837 235.61 249.401 235.61C243.964 235.61 239.558 240.017 239.558 245.453C239.558 250.889 243.964 255.296 249.401 255.296Z" fill="#E6E6E6"/>
<path d="M290.413 255.296C295.849 255.296 300.256 250.889 300.256 245.453C300.256 240.017 295.849 235.61 290.413 235.61C284.977 235.61 280.57 240.017 280.57 245.453C280.57 250.889 284.977 255.296 290.413 255.296Z" fill="#E6E6E6"/>
<path d="M331.426 255.296C336.862 255.296 341.269 250.889 341.269 245.453C341.269 240.017 336.862 235.61 331.426 235.61C325.99 235.61 321.583 240.017 321.583 245.453C321.583 250.889 325.99 255.296 331.426 255.296Z" fill="#E6E6E6"/>
<path d="M372.438 255.296C377.875 255.296 382.281 250.889 382.281 245.453C382.281 240.017 377.875 235.61 372.438 235.61C367.002 235.61 362.595 240.017 362.595 245.453C362.595 250.889 367.002 255.296 372.438 255.296Z" fill="#E6E6E6"/>
<path d="M413.451 255.296C418.887 255.296 423.294 250.889 423.294 245.453C423.294 240.017 418.887 235.61 413.451 235.61C408.015 235.61 403.608 240.017 403.608 245.453C403.608 250.889 408.015 255.296 413.451 255.296Z" fill="#E6E6E6"/>
<path d="M454.464 255.296C459.9 255.296 464.307 250.889 464.307 245.453C464.307 240.017 459.9 235.61 454.464 235.61C449.027 235.61 444.621 240.017 444.621 245.453C444.621 250.889 449.027 255.296 454.464 255.296Z" fill="#E6E6E6"/>
<path d="M208.388 286.465C213.824 286.465 218.231 282.059 218.231 276.622C218.231 271.186 213.824 266.779 208.388 266.779C202.952 266.779 198.545 271.186 198.545 276.622C198.545 282.059 202.952 286.465 208.388 286.465Z" fill="#7B23C9"/>
<path d="M249.401 286.465C254.837 286.465 259.244 282.059 259.244 276.622C259.244 271.186 254.837 266.779 249.401 266.779C243.964 266.779 239.558 271.186 239.558 276.622C239.558 282.059 243.964 286.465 249.401 286.465Z" fill="#7B23C9"/>
<path d="M290.413 286.465C295.849 286.465 300.256 282.059 300.256 276.622C300.256 271.186 295.849 266.779 290.413 266.779C284.977 266.779 280.57 271.186 280.57 276.622C280.57 282.059 284.977 286.465 290.413 286.465Z" fill="#7B23C9"/>
<path d="M331.426 286.465C336.862 286.465 341.269 282.059 341.269 276.622C341.269 271.186 336.862 266.779 331.426 266.779C325.99 266.779 321.583 271.186 321.583 276.622C321.583 282.059 325.99 286.465 331.426 286.465Z" fill="#E6E6E6"/>
<path d="M372.438 286.465C377.875 286.465 382.281 282.059 382.281 276.622C382.281 271.186 377.875 266.779 372.438 266.779C367.002 266.779 362.595 271.186 362.595 276.622C362.595 282.059 367.002 286.465 372.438 286.465Z" fill="#E6E6E6"/>
<path d="M413.451 286.465C418.887 286.465 423.294 282.059 423.294 276.622C423.294 271.186 418.887 266.779 413.451 266.779C408.015 266.779 403.608 271.186 403.608 276.622C403.608 282.059 408.015 286.465 413.451 286.465Z" fill="#E6E6E6"/>
<path d="M454.464 286.465C459.9 286.465 464.307 282.059 464.307 276.622C464.307 271.186 459.9 266.779 454.464 266.779C449.027 266.779 444.621 271.186 444.621 276.622C444.621 282.059 449.027 286.465 454.464 286.465Z" fill="#E6E6E6"/>
<path d="M208.388 317.635C213.824 317.635 218.231 313.228 218.231 307.792C218.231 302.356 213.824 297.949 208.388 297.949C202.952 297.949 198.545 302.356 198.545 307.792C198.545 313.228 202.952 317.635 208.388 317.635Z" fill="#E6E6E6"/>
<path d="M249.401 317.635C254.837 317.635 259.244 313.228 259.244 307.792C259.244 302.356 254.837 297.949 249.401 297.949C243.964 297.949 239.558 302.356 239.558 307.792C239.558 313.228 243.964 317.635 249.401 317.635Z" fill="#E6E6E6"/>
<path d="M208.388 348.805C213.824 348.805 218.231 344.398 218.231 338.962C218.231 333.525 213.824 329.119 208.388 329.119C202.952 329.119 198.545 333.525 198.545 338.962C198.545 344.398 202.952 348.805 208.388 348.805Z" fill="#E6E6E6"/>
<path d="M249.401 348.805C254.837 348.805 259.244 344.398 259.244 338.962C259.244 333.525 254.837 329.119 249.401 329.119C243.964 329.119 239.558 333.525 239.558 338.962C239.558 344.398 243.964 348.805 249.401 348.805Z" fill="#E6E6E6"/>
<path d="M290.413 348.805C295.849 348.805 300.256 344.398 300.256 338.962C300.256 333.525 295.849 329.119 290.413 329.119C284.977 329.119 280.57 333.525 280.57 338.962C280.57 344.398 284.977 348.805 290.413 348.805Z" fill="#E6E6E6"/>
<path d="M290.413 317.635C295.849 317.635 300.256 313.228 300.256 307.792C300.256 302.356 295.849 297.949 290.413 297.949C284.977 297.949 280.57 302.356 280.57 307.792C280.57 313.228 284.977 317.635 290.413 317.635Z" fill="#E6E6E6"/>
<path d="M331.426 317.635C336.862 317.635 341.269 313.228 341.269 307.792C341.269 302.356 336.862 297.949 331.426 297.949C325.99 297.949 321.583 302.356 321.583 307.792C321.583 313.228 325.99 317.635 331.426 317.635Z" fill="#7B23C9"/>
<path d="M372.438 317.635C377.875 317.635 382.281 313.228 382.281 307.792C382.281 302.356 377.875 297.949 372.438 297.949C367.002 297.949 362.595 302.356 362.595 307.792C362.595 313.228 367.002 317.635 372.438 317.635Z" fill="#7B23C9"/>
<path d="M413.451 317.635C418.887 317.635 423.294 313.228 423.294 307.792C423.294 302.356 418.887 297.949 413.451 297.949C408.015 297.949 403.608 302.356 403.608 307.792C403.608 313.228 408.015 317.635 413.451 317.635Z" fill="#7B23C9"/>
<path d="M454.464 317.635C459.9 317.635 464.307 313.228 464.307 307.792C464.307 302.356 459.9 297.949 454.464 297.949C449.027 297.949 444.621 302.356 444.621 307.792C444.621 313.228 449.027 317.635 454.464 317.635Z" fill="#E6E6E6"/>
<path d="M256.914 127.279C255.354 127.304 253.867 127.942 252.773 129.054C251.679 130.167 251.065 131.664 251.065 133.225C251.065 134.785 251.679 136.283 252.773 137.395C253.867 138.507 255.354 139.145 256.914 139.171H406C406.782 139.184 407.558 139.044 408.285 138.757C409.012 138.471 409.676 138.044 410.237 137.501C410.799 136.957 411.249 136.309 411.56 135.592C411.871 134.875 412.038 134.104 412.05 133.322C412.063 132.541 411.922 131.765 411.634 131.038C411.347 130.311 410.919 129.648 410.376 129.087C409.832 128.526 409.183 128.077 408.465 127.767C407.748 127.457 406.977 127.291 406.195 127.279C406.13 127.278 406.065 127.278 406 127.279H256.914Z" fill="#3F3D56"/>
<path d="M439.809 125.623C439.7 125.732 439.614 125.861 439.556 126.003C439.497 126.145 439.466 126.297 439.466 126.45C439.466 126.604 439.497 126.756 439.556 126.898C439.614 127.04 439.7 127.169 439.809 127.278L444.832 132.301H432.446C432.136 132.301 431.838 132.424 431.619 132.643C431.399 132.863 431.276 133.16 431.276 133.471C431.276 133.781 431.399 134.079 431.619 134.298C431.838 134.517 432.136 134.641 432.446 134.641H444.832L439.809 139.664C439.7 139.772 439.614 139.901 439.556 140.043C439.497 140.185 439.466 140.337 439.466 140.491C439.466 140.645 439.497 140.797 439.556 140.939C439.614 141.081 439.7 141.21 439.809 141.318C439.918 141.427 440.047 141.513 440.189 141.572C440.331 141.631 440.483 141.661 440.636 141.661C440.79 141.661 440.942 141.631 441.084 141.572C441.226 141.513 441.355 141.427 441.464 141.318L448.484 134.298C448.704 134.079 448.827 133.781 448.827 133.471C448.827 133.16 448.704 132.863 448.484 132.643L441.464 125.623C441.355 125.514 441.226 125.428 441.084 125.369C440.942 125.311 440.79 125.28 440.637 125.28C440.483 125.28 440.331 125.311 440.189 125.369C440.047 125.428 439.918 125.514 439.809 125.623Z" fill="#E6E6E6"/>
<path d="M223.042 125.623C223.151 125.732 223.237 125.861 223.296 126.003C223.355 126.145 223.385 126.297 223.385 126.45C223.385 126.604 223.355 126.756 223.296 126.898C223.237 127.04 223.151 127.169 223.042 127.278L218.02 132.301H230.405C230.716 132.301 231.013 132.424 231.233 132.643C231.452 132.863 231.575 133.16 231.575 133.471C231.575 133.781 231.452 134.079 231.233 134.298C231.013 134.517 230.716 134.641 230.405 134.641H218.02L223.042 139.664C223.262 139.883 223.385 140.181 223.385 140.491C223.385 140.801 223.262 141.099 223.042 141.318C222.823 141.538 222.525 141.661 222.215 141.661C221.905 141.661 221.607 141.538 221.388 141.318L214.367 134.298C214.148 134.079 214.025 133.781 214.025 133.471C214.025 133.16 214.148 132.863 214.367 132.643L221.388 125.623C221.496 125.514 221.625 125.428 221.767 125.369C221.909 125.311 222.061 125.28 222.215 125.28C222.369 125.28 222.521 125.311 222.663 125.369C222.805 125.428 222.934 125.514 223.042 125.623Z" fill="#E6E6E6"/>
<path d="M248.58 411.627C245.778 411.625 243.004 412.176 240.414 413.246C237.825 414.317 235.473 415.888 233.491 417.869C231.509 419.849 229.937 422.201 228.864 424.789C227.791 427.378 227.239 430.152 227.239 432.954C227.239 435.756 227.791 438.53 228.864 441.118C229.937 443.707 231.509 446.059 233.491 448.039C235.473 450.02 237.825 451.59 240.414 452.661C243.004 453.732 245.778 454.282 248.58 454.28H414.271C417.073 454.282 419.848 453.732 422.437 452.661C425.026 451.59 427.379 450.02 429.361 448.039C431.343 446.059 432.915 443.707 433.988 441.118C435.06 438.53 435.612 435.756 435.612 432.954C435.612 430.152 435.06 427.378 433.988 424.789C432.915 422.201 431.343 419.849 429.361 417.869C427.379 415.888 425.026 414.317 422.437 413.246C419.848 412.176 417.073 411.625 414.271 411.627H248.58Z" fill="#E6E6E6"/>
<path d="M121.272 94.545C114.494 94.545 107.868 92.5349 102.232 88.769C96.5956 85.0031 92.2029 79.6505 89.6089 73.388C87.0149 67.1255 86.3361 60.2345 87.6586 53.5863C88.981 46.938 92.2451 40.8313 97.0382 36.0382C101.831 31.2451 107.938 27.981 114.586 26.6586C121.234 25.3361 128.126 26.0148 134.388 28.6088C140.65 31.2029 146.003 35.5956 149.769 41.2317C153.535 46.8678 155.545 53.494 155.545 60.2725C155.535 69.359 151.921 78.0704 145.495 84.4955C139.07 90.9206 130.359 94.5347 121.272 94.545Z" fill="#7B23C9"/>
<path d="M134.796 56.8918H124.653V46.7494C124.653 45.8528 124.297 44.9929 123.663 44.3588C123.029 43.7248 122.169 43.3686 121.272 43.3686C120.376 43.3686 119.516 43.7248 118.882 44.3588C118.248 44.9929 117.892 45.8528 117.892 46.7494V56.8918H107.749C106.853 56.8918 105.993 57.248 105.359 57.882C104.725 58.516 104.369 59.3759 104.369 60.2725C104.369 61.1692 104.725 62.0291 105.359 62.6631C105.993 63.2971 106.853 63.6533 107.749 63.6533H117.892V73.7956C117.892 74.6923 118.248 75.5522 118.882 76.1862C119.516 76.8202 120.376 77.1764 121.272 77.1764C122.169 77.1764 123.029 76.8202 123.663 76.1862C124.297 75.5522 124.653 74.6923 124.653 73.7956V63.6533H134.796C135.692 63.6533 136.552 63.2971 137.186 62.6631C137.82 62.0291 138.176 61.1692 138.176 60.2725C138.176 59.3759 137.82 58.516 137.186 57.882C136.552 57.248 135.692 56.8918 134.796 56.8918Z" fill="white"/>
</g>
<defs>
<linearGradient id="paint0_linear" x1="671" y1="4.90373e-06" x2="816" y2="660" gradientUnits="userSpaceOnUse">
<stop offset="0.0581423" stop-color="#D50505"/>
<stop offset="0.206842" stop-color="#D92020" stop-opacity="0.892424"/>
<stop offset="0.35132" stop-color="#DE3D3D" stop-opacity="0.777322"/>
<stop offset="0.452196" stop-color="#E56767" stop-opacity="0.609275"/>
<stop offset="0.567366" stop-color="#ED9797" stop-opacity="0.417418"/>
<stop offset="0.74974" stop-color="#F3BABA" stop-opacity="0.275151"/>
<stop offset="1" stop-color="white" stop-opacity="0"/>
</linearGradient>
<clipPath id="clip0">
<rect width="775.545" height="674.792" fill="white" transform="translate(87 26)"/>
</clipPath>
</defs>
</svg>
